<mxfile host="app.diagrams.net" modified="2021-05-01T15:39:07.810Z" agent="5.0 (Windows NT 10.0; Win64; x64) AppleWebKit/537.36 (KHTML, like Gecko) Chrome/90.0.4430.93 Safari/537.36" etag="1MhLn9Yclekn6oQxRHxm" version="14.6.6" type="github">
  <diagram id="9zFEsV01Zll2zfsyJYff" name="Page-1">
    <mxGraphModel dx="2370" dy="1175" grid="1" gridSize="10" guides="1" tooltips="1" connect="1" arrows="1" fold="1" page="1" pageScale="1" pageWidth="1600" pageHeight="900" math="0" shadow="0">
      <root>
        <mxCell id="0" />
        <mxCell id="1" parent="0" />
        <mxCell id="ph8btr_OG7EeDUUNHowu-1" value="" style="shape=table;html=1;whiteSpace=wrap;startSize=0;container=1;collapsible=0;childLayout=tableLayout;sketch=1;" vertex="1" parent="1">
          <mxGeometry x="400" y="50" width="60" height="40" as="geometry" />
        </mxCell>
        <mxCell id="ph8btr_OG7EeDUUNHowu-2" value="" style="shape=partialRectangle;html=1;whiteSpace=wrap;collapsible=0;dropTarget=0;pointerEvents=0;fillColor=none;top=0;left=0;bottom=0;right=0;points=[[0,0.5],[1,0.5]];portConstraint=eastwest;" vertex="1" parent="ph8btr_OG7EeDUUNHowu-1">
          <mxGeometry width="60" height="40" as="geometry" />
        </mxCell>
        <mxCell id="ph8btr_OG7EeDUUNHowu-3" value="" style="shape=partialRectangle;html=1;whiteSpace=wrap;connectable=0;overflow=hidden;fillColor=none;top=0;left=0;bottom=0;right=0;" vertex="1" parent="ph8btr_OG7EeDUUNHowu-2">
          <mxGeometry width="60" height="40" as="geometry" />
        </mxCell>
        <mxCell id="ph8btr_OG7EeDUUNHowu-4" value="&lt;font style=&quot;font-size: 20px&quot; face=&quot;Comic Sans MS&quot;&gt;(0,0,0)&lt;/font&gt;" style="text;html=1;strokeColor=none;fillColor=none;align=center;verticalAlign=middle;whiteSpace=wrap;rounded=0;" vertex="1" parent="1">
          <mxGeometry x="290" y="120" width="40" height="20" as="geometry" />
        </mxCell>
        <mxCell id="ph8btr_OG7EeDUUNHowu-5" value="" style="endArrow=classic;html=1;sketch=1;" edge="1" parent="1">
          <mxGeometry width="50" height="50" relative="1" as="geometry">
            <mxPoint x="310" y="100" as="sourcePoint" />
            <mxPoint x="430" y="70" as="targetPoint" />
            <Array as="points">
              <mxPoint x="320" y="70" />
            </Array>
          </mxGeometry>
        </mxCell>
        <mxCell id="ph8btr_OG7EeDUUNHowu-7" value="" style="shape=table;html=1;whiteSpace=wrap;startSize=0;container=1;collapsible=0;childLayout=tableLayout;sketch=1;" vertex="1" parent="1">
          <mxGeometry x="60" y="220" width="420" height="40" as="geometry" />
        </mxCell>
        <mxCell id="ph8btr_OG7EeDUUNHowu-8" value="" style="shape=partialRectangle;html=1;whiteSpace=wrap;collapsible=0;dropTarget=0;pointerEvents=0;fillColor=none;top=0;left=0;bottom=0;right=0;points=[[0,0.5],[1,0.5]];portConstraint=eastwest;" vertex="1" parent="ph8btr_OG7EeDUUNHowu-7">
          <mxGeometry width="420" height="40" as="geometry" />
        </mxCell>
        <mxCell id="ph8btr_OG7EeDUUNHowu-9" value="" style="shape=partialRectangle;html=1;whiteSpace=wrap;connectable=0;overflow=hidden;fillColor=none;top=0;left=0;bottom=0;right=0;" vertex="1" parent="ph8btr_OG7EeDUUNHowu-8">
          <mxGeometry width="60" height="40" as="geometry" />
        </mxCell>
        <mxCell id="ph8btr_OG7EeDUUNHowu-10" style="shape=partialRectangle;html=1;whiteSpace=wrap;connectable=0;overflow=hidden;fillColor=none;top=0;left=0;bottom=0;right=0;" vertex="1" parent="ph8btr_OG7EeDUUNHowu-8">
          <mxGeometry x="60" width="60" height="40" as="geometry" />
        </mxCell>
        <mxCell id="ph8btr_OG7EeDUUNHowu-11" style="shape=partialRectangle;html=1;whiteSpace=wrap;connectable=0;overflow=hidden;fillColor=none;top=0;left=0;bottom=0;right=0;" vertex="1" parent="ph8btr_OG7EeDUUNHowu-8">
          <mxGeometry x="120" width="60" height="40" as="geometry" />
        </mxCell>
        <mxCell id="ph8btr_OG7EeDUUNHowu-12" value="&lt;font style=&quot;font-size: 24px&quot; face=&quot;Comic Sans MS&quot;&gt;...&lt;/font&gt;" style="shape=partialRectangle;html=1;whiteSpace=wrap;connectable=0;overflow=hidden;fillColor=none;top=0;left=0;bottom=0;right=0;" vertex="1" parent="ph8btr_OG7EeDUUNHowu-8">
          <mxGeometry x="180" width="60" height="40" as="geometry" />
        </mxCell>
        <mxCell id="ph8btr_OG7EeDUUNHowu-13" style="shape=partialRectangle;html=1;whiteSpace=wrap;connectable=0;overflow=hidden;fillColor=none;top=0;left=0;bottom=0;right=0;" vertex="1" parent="ph8btr_OG7EeDUUNHowu-8">
          <mxGeometry x="240" width="60" height="40" as="geometry" />
        </mxCell>
        <mxCell id="ph8btr_OG7EeDUUNHowu-14" style="shape=partialRectangle;html=1;whiteSpace=wrap;connectable=0;overflow=hidden;fillColor=none;top=0;left=0;bottom=0;right=0;" vertex="1" parent="ph8btr_OG7EeDUUNHowu-8">
          <mxGeometry x="300" width="60" height="40" as="geometry" />
        </mxCell>
        <mxCell id="ph8btr_OG7EeDUUNHowu-15" style="shape=partialRectangle;html=1;whiteSpace=wrap;connectable=0;overflow=hidden;fillColor=none;top=0;left=0;bottom=0;right=0;" vertex="1" parent="ph8btr_OG7EeDUUNHowu-8">
          <mxGeometry x="360" width="60" height="40" as="geometry" />
        </mxCell>
        <mxCell id="ph8btr_OG7EeDUUNHowu-16" value="&lt;font style=&quot;font-size: 20px&quot; face=&quot;Comic Sans MS&quot;&gt;(0,0,0)&lt;/font&gt;" style="text;html=1;strokeColor=none;fillColor=none;align=center;verticalAlign=middle;whiteSpace=wrap;rounded=0;" vertex="1" parent="1">
          <mxGeometry x="50" y="350" width="40" height="20" as="geometry" />
        </mxCell>
        <mxCell id="ph8btr_OG7EeDUUNHowu-17" value="" style="endArrow=classic;html=1;sketch=1;" edge="1" parent="1">
          <mxGeometry width="50" height="50" relative="1" as="geometry">
            <mxPoint x="70" y="340" as="sourcePoint" />
            <mxPoint x="90" y="250" as="targetPoint" />
            <Array as="points">
              <mxPoint x="70" y="300" />
            </Array>
          </mxGeometry>
        </mxCell>
        <mxCell id="ph8btr_OG7EeDUUNHowu-18" value="&lt;font style=&quot;font-size: 20px&quot; face=&quot;Comic Sans MS&quot;&gt;(x,0,0)&lt;/font&gt;" style="text;html=1;strokeColor=none;fillColor=none;align=center;verticalAlign=middle;whiteSpace=wrap;rounded=0;" vertex="1" parent="1">
          <mxGeometry x="410" y="340" width="40" height="20" as="geometry" />
        </mxCell>
        <mxCell id="ph8btr_OG7EeDUUNHowu-19" value="" style="endArrow=classic;html=1;sketch=1;" edge="1" parent="1">
          <mxGeometry width="50" height="50" relative="1" as="geometry">
            <mxPoint x="430" y="330" as="sourcePoint" />
            <mxPoint x="450" y="240" as="targetPoint" />
            <Array as="points">
              <mxPoint x="430" y="290" />
            </Array>
          </mxGeometry>
        </mxCell>
        <mxCell id="ph8btr_OG7EeDUUNHowu-22" value="" style="shape=table;html=1;whiteSpace=wrap;startSize=0;container=1;collapsible=0;childLayout=tableLayout;sketch=1;" vertex="1" parent="1">
          <mxGeometry x="60" y="430" width="420" height="120" as="geometry" />
        </mxCell>
        <mxCell id="ph8btr_OG7EeDUUNHowu-36" style="shape=partialRectangle;html=1;whiteSpace=wrap;collapsible=0;dropTarget=0;pointerEvents=0;fillColor=none;top=0;left=0;bottom=0;right=0;points=[[0,0.5],[1,0.5]];portConstraint=eastwest;" vertex="1" parent="ph8btr_OG7EeDUUNHowu-22">
          <mxGeometry width="420" height="40" as="geometry" />
        </mxCell>
        <mxCell id="ph8btr_OG7EeDUUNHowu-37" style="shape=partialRectangle;html=1;whiteSpace=wrap;connectable=0;overflow=hidden;fillColor=none;top=0;left=0;bottom=0;right=0;" vertex="1" parent="ph8btr_OG7EeDUUNHowu-36">
          <mxGeometry width="60" height="40" as="geometry" />
        </mxCell>
        <mxCell id="ph8btr_OG7EeDUUNHowu-38" style="shape=partialRectangle;html=1;whiteSpace=wrap;connectable=0;overflow=hidden;fillColor=none;top=0;left=0;bottom=0;right=0;" vertex="1" parent="ph8btr_OG7EeDUUNHowu-36">
          <mxGeometry x="60" width="60" height="40" as="geometry" />
        </mxCell>
        <mxCell id="ph8btr_OG7EeDUUNHowu-39" style="shape=partialRectangle;html=1;whiteSpace=wrap;connectable=0;overflow=hidden;fillColor=none;top=0;left=0;bottom=0;right=0;" vertex="1" parent="ph8btr_OG7EeDUUNHowu-36">
          <mxGeometry x="120" width="60" height="40" as="geometry" />
        </mxCell>
        <mxCell id="ph8btr_OG7EeDUUNHowu-40" value="&lt;span style=&quot;font-family: &amp;#34;comic sans ms&amp;#34; ; font-size: 24px&quot;&gt;...&lt;/span&gt;" style="shape=partialRectangle;html=1;whiteSpace=wrap;connectable=0;overflow=hidden;fillColor=none;top=0;left=0;bottom=0;right=0;" vertex="1" parent="ph8btr_OG7EeDUUNHowu-36">
          <mxGeometry x="180" width="60" height="40" as="geometry" />
        </mxCell>
        <mxCell id="ph8btr_OG7EeDUUNHowu-41" style="shape=partialRectangle;html=1;whiteSpace=wrap;connectable=0;overflow=hidden;fillColor=none;top=0;left=0;bottom=0;right=0;" vertex="1" parent="ph8btr_OG7EeDUUNHowu-36">
          <mxGeometry x="240" width="60" height="40" as="geometry" />
        </mxCell>
        <mxCell id="ph8btr_OG7EeDUUNHowu-42" style="shape=partialRectangle;html=1;whiteSpace=wrap;connectable=0;overflow=hidden;fillColor=none;top=0;left=0;bottom=0;right=0;" vertex="1" parent="ph8btr_OG7EeDUUNHowu-36">
          <mxGeometry x="300" width="60" height="40" as="geometry" />
        </mxCell>
        <mxCell id="ph8btr_OG7EeDUUNHowu-43" style="shape=partialRectangle;html=1;whiteSpace=wrap;connectable=0;overflow=hidden;fillColor=none;top=0;left=0;bottom=0;right=0;" vertex="1" parent="ph8btr_OG7EeDUUNHowu-36">
          <mxGeometry x="360" width="60" height="40" as="geometry" />
        </mxCell>
        <mxCell id="ph8btr_OG7EeDUUNHowu-44" style="shape=partialRectangle;html=1;whiteSpace=wrap;collapsible=0;dropTarget=0;pointerEvents=0;fillColor=none;top=0;left=0;bottom=0;right=0;points=[[0,0.5],[1,0.5]];portConstraint=eastwest;" vertex="1" parent="ph8btr_OG7EeDUUNHowu-22">
          <mxGeometry y="40" width="420" height="40" as="geometry" />
        </mxCell>
        <mxCell id="ph8btr_OG7EeDUUNHowu-45" style="shape=partialRectangle;html=1;whiteSpace=wrap;connectable=0;overflow=hidden;fillColor=none;top=0;left=0;bottom=0;right=0;" vertex="1" parent="ph8btr_OG7EeDUUNHowu-44">
          <mxGeometry width="60" height="40" as="geometry" />
        </mxCell>
        <mxCell id="ph8btr_OG7EeDUUNHowu-46" style="shape=partialRectangle;html=1;whiteSpace=wrap;connectable=0;overflow=hidden;fillColor=none;top=0;left=0;bottom=0;right=0;" vertex="1" parent="ph8btr_OG7EeDUUNHowu-44">
          <mxGeometry x="60" width="60" height="40" as="geometry" />
        </mxCell>
        <mxCell id="ph8btr_OG7EeDUUNHowu-47" style="shape=partialRectangle;html=1;whiteSpace=wrap;connectable=0;overflow=hidden;fillColor=none;top=0;left=0;bottom=0;right=0;" vertex="1" parent="ph8btr_OG7EeDUUNHowu-44">
          <mxGeometry x="120" width="60" height="40" as="geometry" />
        </mxCell>
        <mxCell id="ph8btr_OG7EeDUUNHowu-48" value="&lt;span style=&quot;font-family: &amp;#34;comic sans ms&amp;#34; ; font-size: 24px&quot;&gt;...&lt;/span&gt;" style="shape=partialRectangle;html=1;whiteSpace=wrap;connectable=0;overflow=hidden;fillColor=none;top=0;left=0;bottom=0;right=0;" vertex="1" parent="ph8btr_OG7EeDUUNHowu-44">
          <mxGeometry x="180" width="60" height="40" as="geometry" />
        </mxCell>
        <mxCell id="ph8btr_OG7EeDUUNHowu-49" style="shape=partialRectangle;html=1;whiteSpace=wrap;connectable=0;overflow=hidden;fillColor=none;top=0;left=0;bottom=0;right=0;" vertex="1" parent="ph8btr_OG7EeDUUNHowu-44">
          <mxGeometry x="240" width="60" height="40" as="geometry" />
        </mxCell>
        <mxCell id="ph8btr_OG7EeDUUNHowu-50" style="shape=partialRectangle;html=1;whiteSpace=wrap;connectable=0;overflow=hidden;fillColor=none;top=0;left=0;bottom=0;right=0;" vertex="1" parent="ph8btr_OG7EeDUUNHowu-44">
          <mxGeometry x="300" width="60" height="40" as="geometry" />
        </mxCell>
        <mxCell id="ph8btr_OG7EeDUUNHowu-51" style="shape=partialRectangle;html=1;whiteSpace=wrap;connectable=0;overflow=hidden;fillColor=none;top=0;left=0;bottom=0;right=0;" vertex="1" parent="ph8btr_OG7EeDUUNHowu-44">
          <mxGeometry x="360" width="60" height="40" as="geometry" />
        </mxCell>
        <mxCell id="ph8btr_OG7EeDUUNHowu-23" value="" style="shape=partialRectangle;html=1;whiteSpace=wrap;collapsible=0;dropTarget=0;pointerEvents=0;fillColor=none;top=0;left=0;bottom=0;right=0;points=[[0,0.5],[1,0.5]];portConstraint=eastwest;" vertex="1" parent="ph8btr_OG7EeDUUNHowu-22">
          <mxGeometry y="80" width="420" height="40" as="geometry" />
        </mxCell>
        <mxCell id="ph8btr_OG7EeDUUNHowu-24" value="" style="shape=partialRectangle;html=1;whiteSpace=wrap;connectable=0;overflow=hidden;fillColor=none;top=0;left=0;bottom=0;right=0;" vertex="1" parent="ph8btr_OG7EeDUUNHowu-23">
          <mxGeometry width="60" height="40" as="geometry" />
        </mxCell>
        <mxCell id="ph8btr_OG7EeDUUNHowu-25" style="shape=partialRectangle;html=1;whiteSpace=wrap;connectable=0;overflow=hidden;fillColor=none;top=0;left=0;bottom=0;right=0;" vertex="1" parent="ph8btr_OG7EeDUUNHowu-23">
          <mxGeometry x="60" width="60" height="40" as="geometry" />
        </mxCell>
        <mxCell id="ph8btr_OG7EeDUUNHowu-26" style="shape=partialRectangle;html=1;whiteSpace=wrap;connectable=0;overflow=hidden;fillColor=none;top=0;left=0;bottom=0;right=0;" vertex="1" parent="ph8btr_OG7EeDUUNHowu-23">
          <mxGeometry x="120" width="60" height="40" as="geometry" />
        </mxCell>
        <mxCell id="ph8btr_OG7EeDUUNHowu-27" value="&lt;font style=&quot;font-size: 24px&quot; face=&quot;Comic Sans MS&quot;&gt;...&lt;/font&gt;" style="shape=partialRectangle;html=1;whiteSpace=wrap;connectable=0;overflow=hidden;fillColor=none;top=0;left=0;bottom=0;right=0;" vertex="1" parent="ph8btr_OG7EeDUUNHowu-23">
          <mxGeometry x="180" width="60" height="40" as="geometry" />
        </mxCell>
        <mxCell id="ph8btr_OG7EeDUUNHowu-28" style="shape=partialRectangle;html=1;whiteSpace=wrap;connectable=0;overflow=hidden;fillColor=none;top=0;left=0;bottom=0;right=0;" vertex="1" parent="ph8btr_OG7EeDUUNHowu-23">
          <mxGeometry x="240" width="60" height="40" as="geometry" />
        </mxCell>
        <mxCell id="ph8btr_OG7EeDUUNHowu-29" style="shape=partialRectangle;html=1;whiteSpace=wrap;connectable=0;overflow=hidden;fillColor=none;top=0;left=0;bottom=0;right=0;" vertex="1" parent="ph8btr_OG7EeDUUNHowu-23">
          <mxGeometry x="300" width="60" height="40" as="geometry" />
        </mxCell>
        <mxCell id="ph8btr_OG7EeDUUNHowu-30" style="shape=partialRectangle;html=1;whiteSpace=wrap;connectable=0;overflow=hidden;fillColor=none;top=0;left=0;bottom=0;right=0;" vertex="1" parent="ph8btr_OG7EeDUUNHowu-23">
          <mxGeometry x="360" width="60" height="40" as="geometry" />
        </mxCell>
        <mxCell id="ph8btr_OG7EeDUUNHowu-31" value="&lt;font style=&quot;font-size: 20px&quot; face=&quot;Comic Sans MS&quot;&gt;(0,0,0)&lt;/font&gt;" style="text;html=1;strokeColor=none;fillColor=none;align=center;verticalAlign=middle;whiteSpace=wrap;rounded=0;" vertex="1" parent="1">
          <mxGeometry x="50" y="630" width="40" height="20" as="geometry" />
        </mxCell>
        <mxCell id="ph8btr_OG7EeDUUNHowu-32" value="" style="endArrow=classic;html=1;sketch=1;" edge="1" parent="1">
          <mxGeometry width="50" height="50" relative="1" as="geometry">
            <mxPoint x="70" y="620" as="sourcePoint" />
            <mxPoint x="90" y="530" as="targetPoint" />
            <Array as="points">
              <mxPoint x="70" y="580" />
            </Array>
          </mxGeometry>
        </mxCell>
        <mxCell id="ph8btr_OG7EeDUUNHowu-33" value="&lt;font style=&quot;font-size: 20px&quot; face=&quot;Comic Sans MS&quot;&gt;(x,0,0)&lt;/font&gt;" style="text;html=1;strokeColor=none;fillColor=none;align=center;verticalAlign=middle;whiteSpace=wrap;rounded=0;" vertex="1" parent="1">
          <mxGeometry x="410" y="630" width="40" height="20" as="geometry" />
        </mxCell>
        <mxCell id="ph8btr_OG7EeDUUNHowu-34" value="" style="endArrow=classic;html=1;sketch=1;" edge="1" parent="1">
          <mxGeometry width="50" height="50" relative="1" as="geometry">
            <mxPoint x="430" y="620" as="sourcePoint" />
            <mxPoint x="450" y="530" as="targetPoint" />
            <Array as="points">
              <mxPoint x="430" y="580" />
            </Array>
          </mxGeometry>
        </mxCell>
        <mxCell id="ph8btr_OG7EeDUUNHowu-53" value="" style="endArrow=classic;html=1;sketch=1;" edge="1" parent="1">
          <mxGeometry width="50" height="50" relative="1" as="geometry">
            <mxPoint x="510" y="610" as="sourcePoint" />
            <mxPoint x="450" y="450" as="targetPoint" />
            <Array as="points">
              <mxPoint x="510" y="550" />
            </Array>
          </mxGeometry>
        </mxCell>
        <mxCell id="ph8btr_OG7EeDUUNHowu-54" value="&lt;font style=&quot;font-size: 20px&quot; face=&quot;Comic Sans MS&quot;&gt;(x,y,0)&lt;/font&gt;" style="text;html=1;strokeColor=none;fillColor=none;align=center;verticalAlign=middle;whiteSpace=wrap;rounded=0;" vertex="1" parent="1">
          <mxGeometry x="490" y="630" width="40" height="20" as="geometry" />
        </mxCell>
        <mxCell id="ph8btr_OG7EeDUUNHowu-55" value="" style="html=1;whiteSpace=wrap;shape=isoCube2;backgroundOutline=1;isoAngle=15;sketch=1;" vertex="1" parent="1">
          <mxGeometry x="170" y="710" width="90" height="100" as="geometry" />
        </mxCell>
        <mxCell id="ph8btr_OG7EeDUUNHowu-56" value="" style="html=1;whiteSpace=wrap;shape=isoCube2;backgroundOutline=1;isoAngle=15;sketch=1;" vertex="1" parent="1">
          <mxGeometry x="210" y="730" width="90" height="100" as="geometry" />
        </mxCell>
        <mxCell id="ph8btr_OG7EeDUUNHowu-57" value="" style="html=1;whiteSpace=wrap;shape=isoCube2;backgroundOutline=1;isoAngle=15;sketch=1;" vertex="1" parent="1">
          <mxGeometry x="260" y="750" width="90" height="100" as="geometry" />
        </mxCell>
        <mxCell id="ph8btr_OG7EeDUUNHowu-58" value="" style="html=1;whiteSpace=wrap;shape=isoCube2;backgroundOutline=1;isoAngle=15;sketch=1;" vertex="1" parent="1">
          <mxGeometry x="300" y="770" width="90" height="100" as="geometry" />
        </mxCell>
        <mxCell id="ph8btr_OG7EeDUUNHowu-59" value="" style="html=1;whiteSpace=wrap;shape=isoCube2;backgroundOutline=1;isoAngle=15;sketch=1;" vertex="1" parent="1">
          <mxGeometry x="120" y="730" width="90" height="100" as="geometry" />
        </mxCell>
        <mxCell id="ph8btr_OG7EeDUUNHowu-60" value="" style="html=1;whiteSpace=wrap;shape=isoCube2;backgroundOutline=1;isoAngle=15;sketch=1;" vertex="1" parent="1">
          <mxGeometry x="170" y="750" width="90" height="100" as="geometry" />
        </mxCell>
        <mxCell id="ph8btr_OG7EeDUUNHowu-61" value="" style="html=1;whiteSpace=wrap;shape=isoCube2;backgroundOutline=1;isoAngle=15;sketch=1;" vertex="1" parent="1">
          <mxGeometry x="210" y="770" width="90" height="100" as="geometry" />
        </mxCell>
        <mxCell id="ph8btr_OG7EeDUUNHowu-62" value="" style="html=1;whiteSpace=wrap;shape=isoCube2;backgroundOutline=1;isoAngle=15;sketch=1;" vertex="1" parent="1">
          <mxGeometry x="260" y="790" width="90" height="100" as="geometry" />
        </mxCell>
        <mxCell id="ph8btr_OG7EeDUUNHowu-63" value="" style="html=1;whiteSpace=wrap;shape=isoCube2;backgroundOutline=1;isoAngle=15;sketch=1;" vertex="1" parent="1">
          <mxGeometry x="170" y="650" width="90" height="100" as="geometry" />
        </mxCell>
        <mxCell id="ph8btr_OG7EeDUUNHowu-64" value="" style="html=1;whiteSpace=wrap;shape=isoCube2;backgroundOutline=1;isoAngle=15;sketch=1;" vertex="1" parent="1">
          <mxGeometry x="210" y="670" width="90" height="100" as="geometry" />
        </mxCell>
        <mxCell id="ph8btr_OG7EeDUUNHowu-65" value="" style="html=1;whiteSpace=wrap;shape=isoCube2;backgroundOutline=1;isoAngle=15;sketch=1;" vertex="1" parent="1">
          <mxGeometry x="250" y="690" width="90" height="100" as="geometry" />
        </mxCell>
        <mxCell id="ph8btr_OG7EeDUUNHowu-66" value="" style="html=1;whiteSpace=wrap;shape=isoCube2;backgroundOutline=1;isoAngle=15;sketch=1;" vertex="1" parent="1">
          <mxGeometry x="300" y="710" width="90" height="100" as="geometry" />
        </mxCell>
        <mxCell id="ph8btr_OG7EeDUUNHowu-67" value="" style="html=1;whiteSpace=wrap;shape=isoCube2;backgroundOutline=1;isoAngle=15;sketch=1;" vertex="1" parent="1">
          <mxGeometry x="120" y="670" width="90" height="100" as="geometry" />
        </mxCell>
        <mxCell id="ph8btr_OG7EeDUUNHowu-68" value="" style="html=1;whiteSpace=wrap;shape=isoCube2;backgroundOutline=1;isoAngle=15;sketch=1;" vertex="1" parent="1">
          <mxGeometry x="160" y="690" width="90" height="100" as="geometry" />
        </mxCell>
        <mxCell id="ph8btr_OG7EeDUUNHowu-69" value="" style="html=1;whiteSpace=wrap;shape=isoCube2;backgroundOutline=1;isoAngle=15;sketch=1;" vertex="1" parent="1">
          <mxGeometry x="210" y="710" width="90" height="100" as="geometry" />
        </mxCell>
        <mxCell id="ph8btr_OG7EeDUUNHowu-70" value="" style="html=1;whiteSpace=wrap;shape=isoCube2;backgroundOutline=1;isoAngle=15;sketch=1;" vertex="1" parent="1">
          <mxGeometry x="260" y="730" width="90" height="100" as="geometry" />
        </mxCell>
        <mxCell id="ph8btr_OG7EeDUUNHowu-71" value="" style="html=1;whiteSpace=wrap;shape=isoCube2;backgroundOutline=1;isoAngle=15;sketch=1;" vertex="1" parent="1">
          <mxGeometry x="80" y="750" width="90" height="100" as="geometry" />
        </mxCell>
        <mxCell id="ph8btr_OG7EeDUUNHowu-72" value="" style="html=1;whiteSpace=wrap;shape=isoCube2;backgroundOutline=1;isoAngle=15;sketch=1;" vertex="1" parent="1">
          <mxGeometry x="120" y="770" width="90" height="100" as="geometry" />
        </mxCell>
        <mxCell id="ph8btr_OG7EeDUUNHowu-73" value="" style="html=1;whiteSpace=wrap;shape=isoCube2;backgroundOutline=1;isoAngle=15;sketch=1;" vertex="1" parent="1">
          <mxGeometry x="170" y="790" width="90" height="100" as="geometry" />
        </mxCell>
        <mxCell id="ph8btr_OG7EeDUUNHowu-74" value="" style="html=1;whiteSpace=wrap;shape=isoCube2;backgroundOutline=1;isoAngle=15;sketch=1;" vertex="1" parent="1">
          <mxGeometry x="210" y="810" width="90" height="100" as="geometry" />
        </mxCell>
        <mxCell id="ph8btr_OG7EeDUUNHowu-75" value="" style="html=1;whiteSpace=wrap;shape=isoCube2;backgroundOutline=1;isoAngle=15;sketch=1;" vertex="1" parent="1">
          <mxGeometry x="80" y="690" width="90" height="100" as="geometry" />
        </mxCell>
        <mxCell id="ph8btr_OG7EeDUUNHowu-76" value="" style="html=1;whiteSpace=wrap;shape=isoCube2;backgroundOutline=1;isoAngle=15;sketch=1;" vertex="1" parent="1">
          <mxGeometry x="120" y="710" width="90" height="100" as="geometry" />
        </mxCell>
        <mxCell id="ph8btr_OG7EeDUUNHowu-77" value="" style="html=1;whiteSpace=wrap;shape=isoCube2;backgroundOutline=1;isoAngle=15;sketch=1;" vertex="1" parent="1">
          <mxGeometry x="160" y="730" width="90" height="100" as="geometry" />
        </mxCell>
        <mxCell id="ph8btr_OG7EeDUUNHowu-78" value="" style="html=1;whiteSpace=wrap;shape=isoCube2;backgroundOutline=1;isoAngle=15;sketch=1;" vertex="1" parent="1">
          <mxGeometry x="210" y="750" width="90" height="100" as="geometry" />
        </mxCell>
        <mxCell id="ph8btr_OG7EeDUUNHowu-79" value="&lt;font style=&quot;font-size: 20px&quot; face=&quot;Comic Sans MS&quot;&gt;(0,0,0)&lt;/font&gt;" style="text;html=1;strokeColor=none;fillColor=none;align=center;verticalAlign=middle;whiteSpace=wrap;rounded=0;" vertex="1" parent="1">
          <mxGeometry x="20" y="860" width="40" height="20" as="geometry" />
        </mxCell>
        <mxCell id="ph8btr_OG7EeDUUNHowu-80" value="&lt;font style=&quot;font-size: 20px&quot; face=&quot;Comic Sans MS&quot;&gt;(x,0,0)&lt;/font&gt;" style="text;html=1;strokeColor=none;fillColor=none;align=center;verticalAlign=middle;whiteSpace=wrap;rounded=0;" vertex="1" parent="1">
          <mxGeometry x="180" y="920" width="40" height="20" as="geometry" />
        </mxCell>
        <mxCell id="ph8btr_OG7EeDUUNHowu-81" value="&lt;font style=&quot;font-size: 20px&quot; face=&quot;Comic Sans MS&quot;&gt;(x,y,z)&lt;/font&gt;" style="text;html=1;strokeColor=none;fillColor=none;align=center;verticalAlign=middle;whiteSpace=wrap;rounded=0;" vertex="1" parent="1">
          <mxGeometry x="430" y="730" width="40" height="20" as="geometry" />
        </mxCell>
        <mxCell id="ph8btr_OG7EeDUUNHowu-83" value="" style="endArrow=classic;html=1;sketch=1;" edge="1" parent="1">
          <mxGeometry width="50" height="50" relative="1" as="geometry">
            <mxPoint x="30" y="849.9999999999998" as="sourcePoint" />
            <mxPoint x="100" y="810" as="targetPoint" />
            <Array as="points">
              <mxPoint x="30" y="810" />
            </Array>
          </mxGeometry>
        </mxCell>
        <mxCell id="ph8btr_OG7EeDUUNHowu-84" value="" style="endArrow=classic;html=1;sketch=1;" edge="1" parent="1">
          <mxGeometry width="50" height="50" relative="1" as="geometry">
            <mxPoint x="240" y="940" as="sourcePoint" />
            <mxPoint x="270" y="880" as="targetPoint" />
            <Array as="points">
              <mxPoint x="280" y="910" />
            </Array>
          </mxGeometry>
        </mxCell>
        <mxCell id="ph8btr_OG7EeDUUNHowu-85" value="" style="endArrow=classic;html=1;sketch=1;" edge="1" parent="1">
          <mxGeometry width="50" height="50" relative="1" as="geometry">
            <mxPoint x="430" y="729.9999999999998" as="sourcePoint" />
            <mxPoint x="350" y="730" as="targetPoint" />
            <Array as="points">
              <mxPoint x="400" y="710" />
            </Array>
          </mxGeometry>
        </mxCell>
        <mxCell id="ph8btr_OG7EeDUUNHowu-86" value="&lt;font style=&quot;font-size: 20px&quot; face=&quot;Comic Sans MS&quot;&gt;(x,0,z)&lt;/font&gt;" style="text;html=1;strokeColor=none;fillColor=none;align=center;verticalAlign=middle;whiteSpace=wrap;rounded=0;" vertex="1" parent="1">
          <mxGeometry x="400" y="910" width="40" height="20" as="geometry" />
        </mxCell>
        <mxCell id="ph8btr_OG7EeDUUNHowu-87" value="" style="endArrow=classic;html=1;sketch=1;" edge="1" parent="1">
          <mxGeometry width="50" height="50" relative="1" as="geometry">
            <mxPoint x="420" y="899.9999999999998" as="sourcePoint" />
            <mxPoint x="370" y="830" as="targetPoint" />
            <Array as="points">
              <mxPoint x="420" y="860" />
            </Array>
          </mxGeometry>
        </mxCell>
        <mxCell id="ph8btr_OG7EeDUUNHowu-88" value="" style="endArrow=none;dashed=1;html=1;" edge="1" parent="1">
          <mxGeometry width="50" height="50" relative="1" as="geometry">
            <mxPoint x="640" y="942" as="sourcePoint" />
            <mxPoint x="640" y="10" as="targetPoint" />
          </mxGeometry>
        </mxCell>
        <mxCell id="ph8btr_OG7EeDUUNHowu-89" value="&lt;font face=&quot;Comic Sans MS&quot; style=&quot;font-size: 27px&quot;&gt;single instance&lt;/font&gt;" style="text;html=1;strokeColor=none;fillColor=none;align=center;verticalAlign=middle;whiteSpace=wrap;rounded=0;sketch=1;" vertex="1" parent="1">
          <mxGeometry x="720" y="60" width="40" height="20" as="geometry" />
        </mxCell>
        <mxCell id="ph8btr_OG7EeDUUNHowu-90" value="&lt;font face=&quot;Comic Sans MS&quot; style=&quot;font-size: 27px&quot;&gt;one&lt;br&gt;dimensional&lt;br&gt;&lt;/font&gt;" style="text;html=1;strokeColor=none;fillColor=none;align=center;verticalAlign=middle;whiteSpace=wrap;rounded=0;sketch=1;" vertex="1" parent="1">
          <mxGeometry x="710" y="230" width="40" height="20" as="geometry" />
        </mxCell>
        <mxCell id="ph8btr_OG7EeDUUNHowu-91" value="&lt;font face=&quot;Comic Sans MS&quot; style=&quot;font-size: 27px&quot;&gt;two&lt;br&gt;dimensional&lt;br&gt;&lt;/font&gt;" style="text;html=1;strokeColor=none;fillColor=none;align=center;verticalAlign=middle;whiteSpace=wrap;rounded=0;sketch=1;" vertex="1" parent="1">
          <mxGeometry x="710" y="480" width="40" height="20" as="geometry" />
        </mxCell>
        <mxCell id="ph8btr_OG7EeDUUNHowu-92" value="&lt;font face=&quot;Comic Sans MS&quot; style=&quot;font-size: 27px&quot;&gt;three&lt;br&gt;dimensional&lt;br&gt;&lt;/font&gt;" style="text;html=1;strokeColor=none;fillColor=none;align=center;verticalAlign=middle;whiteSpace=wrap;rounded=0;sketch=1;" vertex="1" parent="1">
          <mxGeometry x="720" y="770" width="40" height="20" as="geometry" />
        </mxCell>
      </root>
    </mxGraphModel>
  </diagram>
</mxfile>
